<mxfile host="app.diagrams.net" agent="Mozilla/5.0 (Windows NT 10.0; Win64; x64) AppleWebKit/537.36 (KHTML, like Gecko) Chrome/131.0.0.0 Safari/537.36 Edg/131.0.0.0" version="24.9.0">
  <diagram name="Pagina-1" id="2O72avbdim1Y5TOyPMnI">
    <mxGraphModel dx="786" dy="627" grid="1" gridSize="10" guides="1" tooltips="1" connect="1" arrows="1" fold="1" page="1" pageScale="1" pageWidth="827" pageHeight="1169" math="0" shadow="0">
      <root>
        <mxCell id="0" />
        <mxCell id="1" parent="0" />
        <mxCell id="T8cn9ByeMSnCI6hdlmqj-14" value="" style="edgeStyle=orthogonalEdgeStyle;rounded=0;orthogonalLoop=1;jettySize=auto;html=1;labelBackgroundColor=none;strokeColor=#0B4D6A;fontColor=default;" edge="1" parent="1" source="T8cn9ByeMSnCI6hdlmqj-12">
          <mxGeometry relative="1" as="geometry">
            <mxPoint x="250" y="155" as="targetPoint" />
          </mxGeometry>
        </mxCell>
        <mxCell id="T8cn9ByeMSnCI6hdlmqj-22" value="Court Case Text" style="edgeLabel;html=1;align=center;verticalAlign=middle;resizable=0;points=[];labelBackgroundColor=none;fontColor=#000000;" vertex="1" connectable="0" parent="T8cn9ByeMSnCI6hdlmqj-14">
          <mxGeometry x="-0.2217" y="-1" relative="1" as="geometry">
            <mxPoint as="offset" />
          </mxGeometry>
        </mxCell>
        <mxCell id="T8cn9ByeMSnCI6hdlmqj-12" value="LLM-Analysis Court Cases Crypto Data" style="shape=datastore;whiteSpace=wrap;html=1;labelBackgroundColor=none;fillColor=#09555B;strokeColor=#BAC8D3;fontColor=#EEEEEE;" vertex="1" parent="1">
          <mxGeometry x="20" y="110" width="120" height="90" as="geometry" />
        </mxCell>
        <mxCell id="T8cn9ByeMSnCI6hdlmqj-27" value="" style="edgeStyle=orthogonalEdgeStyle;rounded=0;orthogonalLoop=1;jettySize=auto;html=1;labelBackgroundColor=none;strokeColor=#0B4D6A;fontColor=default;" edge="1" parent="1" source="T8cn9ByeMSnCI6hdlmqj-15">
          <mxGeometry relative="1" as="geometry">
            <mxPoint x="299" y="290" as="targetPoint" />
          </mxGeometry>
        </mxCell>
        <mxCell id="T8cn9ByeMSnCI6hdlmqj-28" value="JSON schema output" style="edgeLabel;html=1;align=center;verticalAlign=middle;resizable=0;points=[];labelBackgroundColor=none;fontColor=#000000;" vertex="1" connectable="0" parent="T8cn9ByeMSnCI6hdlmqj-27">
          <mxGeometry x="-0.1919" y="-2" relative="1" as="geometry">
            <mxPoint as="offset" />
          </mxGeometry>
        </mxCell>
        <mxCell id="T8cn9ByeMSnCI6hdlmqj-15" value="" style="shape=image;html=1;verticalAlign=top;verticalLabelPosition=bottom;labelBackgroundColor=none;imageAspect=0;aspect=fixed;image=https://cdn3.iconfinder.com/data/icons/ballicons-reloaded-free/512/icon-93-128.png;fillColor=#09555B;strokeColor=#BAC8D3;fontColor=#EEEEEE;" vertex="1" parent="1">
          <mxGeometry x="250" y="106" width="98" height="98" as="geometry" />
        </mxCell>
        <mxCell id="T8cn9ByeMSnCI6hdlmqj-16" value="&lt;b&gt;&lt;font color=&quot;#ffffff&quot;&gt;LLM&lt;/font&gt;&lt;/b&gt;" style="text;html=1;align=center;verticalAlign=middle;whiteSpace=wrap;rounded=0;labelBackgroundColor=none;fontColor=#EEEEEE;" vertex="1" parent="1">
          <mxGeometry x="278" y="110" width="70" height="40" as="geometry" />
        </mxCell>
        <mxCell id="T8cn9ByeMSnCI6hdlmqj-19" value="" style="edgeStyle=orthogonalEdgeStyle;rounded=0;orthogonalLoop=1;jettySize=auto;html=1;labelBackgroundColor=none;strokeColor=#0B4D6A;fontColor=default;" edge="1" parent="1" source="T8cn9ByeMSnCI6hdlmqj-17" target="T8cn9ByeMSnCI6hdlmqj-16">
          <mxGeometry relative="1" as="geometry" />
        </mxCell>
        <mxCell id="T8cn9ByeMSnCI6hdlmqj-24" value="Instruction + definitions + examples" style="edgeLabel;html=1;align=center;verticalAlign=middle;resizable=0;points=[];labelBackgroundColor=none;fontColor=#000000;" vertex="1" connectable="0" parent="T8cn9ByeMSnCI6hdlmqj-19">
          <mxGeometry x="-0.28" y="-2" relative="1" as="geometry">
            <mxPoint as="offset" />
          </mxGeometry>
        </mxCell>
        <mxCell id="T8cn9ByeMSnCI6hdlmqj-17" value="System Prompt" style="shape=process;whiteSpace=wrap;html=1;backgroundOutline=1;labelBackgroundColor=none;fillColor=#09555B;strokeColor=#BAC8D3;fontColor=#EEEEEE;" vertex="1" parent="1">
          <mxGeometry x="253" width="120" height="60" as="geometry" />
        </mxCell>
        <mxCell id="T8cn9ByeMSnCI6hdlmqj-21" value="" style="edgeStyle=orthogonalEdgeStyle;rounded=0;orthogonalLoop=1;jettySize=auto;html=1;labelBackgroundColor=none;strokeColor=#0B4D6A;fontColor=default;" edge="1" parent="1" source="T8cn9ByeMSnCI6hdlmqj-20" target="T8cn9ByeMSnCI6hdlmqj-16">
          <mxGeometry relative="1" as="geometry" />
        </mxCell>
        <mxCell id="T8cn9ByeMSnCI6hdlmqj-25" value="Output format" style="edgeLabel;html=1;align=center;verticalAlign=middle;resizable=0;points=[];labelBackgroundColor=none;fontColor=#000000;" vertex="1" connectable="0" parent="T8cn9ByeMSnCI6hdlmqj-21">
          <mxGeometry x="-0.0488" y="1" relative="1" as="geometry">
            <mxPoint as="offset" />
          </mxGeometry>
        </mxCell>
        <mxCell id="T8cn9ByeMSnCI6hdlmqj-20" value="JSON Schema" style="shape=process;whiteSpace=wrap;html=1;backgroundOutline=1;labelBackgroundColor=none;fillColor=#09555B;strokeColor=#BAC8D3;fontColor=#EEEEEE;" vertex="1" parent="1">
          <mxGeometry x="480" y="100" width="120" height="60" as="geometry" />
        </mxCell>
        <mxCell id="T8cn9ByeMSnCI6hdlmqj-34" value="&lt;span style=&quot;font-weight: 400; background-color: rgb(255, 255, 255);&quot;&gt;Court Case Analysis&lt;/span&gt;" style="swimlane;whiteSpace=wrap;html=1;labelBackgroundColor=none;fillColor=#09555B;strokeColor=#BAC8D3;fontColor=#EEEEEE;" vertex="1" parent="1">
          <mxGeometry x="99" y="290" width="415" height="200" as="geometry" />
        </mxCell>
        <mxCell id="T8cn9ByeMSnCI6hdlmqj-35" value="&lt;div style=&quot;text-align: justify;&quot;&gt;&lt;ol&gt;&lt;li&gt;&lt;span style=&quot;background-color: initial;&quot;&gt;&lt;font color=&quot;#6f6c25&quot;&gt;Keyfigure Extraction&lt;/font&gt;&lt;/span&gt;&lt;/li&gt;&lt;li&gt;&lt;span style=&quot;background-color: initial;&quot;&gt;&lt;font color=&quot;#6f6c25&quot;&gt;Viewpoint Crypto-Data Extraction&amp;nbsp;&lt;/font&gt;&lt;/span&gt;&lt;/li&gt;&lt;li&gt;&lt;span style=&quot;background-color: initial;&quot;&gt;&lt;font color=&quot;#6f6c25&quot;&gt;Reasoning&amp;nbsp;&lt;/font&gt;&lt;/span&gt;&lt;/li&gt;&lt;li&gt;&lt;font color=&quot;#6f6c25&quot;&gt;List of Tags&amp;nbsp;&lt;/font&gt;&lt;/li&gt;&lt;li&gt;&lt;font color=&quot;#6f6c25&quot;&gt;Marker (Identifying whether the viewpoint is relevant for crypto-data)&lt;/font&gt;&lt;/li&gt;&lt;li&gt;&lt;font color=&quot;#6f6c25&quot;&gt;Classification into 3 labels:&lt;/font&gt;&lt;/li&gt;&lt;ol&gt;&lt;li&gt;&lt;font color=&quot;#6f6c25&quot;&gt;Trustworthiness&lt;/font&gt;&lt;/li&gt;&lt;li&gt;&lt;font color=&quot;#6f6c25&quot;&gt;Rightfulness&lt;/font&gt;&lt;/li&gt;&lt;li&gt;&lt;font color=&quot;#6f6c25&quot;&gt;Convincing&lt;/font&gt;&lt;/li&gt;&lt;/ol&gt;&lt;/ol&gt;&lt;/div&gt;" style="text;html=1;align=left;verticalAlign=middle;resizable=0;points=[];autosize=1;strokeColor=none;fillColor=none;labelBackgroundColor=none;fontColor=#EEEEEE;" vertex="1" parent="T8cn9ByeMSnCI6hdlmqj-34">
          <mxGeometry x="-7.5" y="25" width="430" height="170" as="geometry" />
        </mxCell>
        <mxCell id="T8cn9ByeMSnCI6hdlmqj-39" value="" style="edgeStyle=orthogonalEdgeStyle;rounded=0;orthogonalLoop=1;jettySize=auto;html=1;labelBackgroundColor=none;strokeColor=#0B4D6A;fontColor=default;" edge="1" parent="1" source="T8cn9ByeMSnCI6hdlmqj-36" target="T8cn9ByeMSnCI6hdlmqj-38">
          <mxGeometry relative="1" as="geometry" />
        </mxCell>
        <mxCell id="T8cn9ByeMSnCI6hdlmqj-36" value="Results Storage" style="shape=datastore;whiteSpace=wrap;html=1;labelBackgroundColor=none;fillColor=#09555B;strokeColor=#BAC8D3;fontColor=#EEEEEE;" vertex="1" parent="1">
          <mxGeometry x="266" y="540" width="81" height="130" as="geometry" />
        </mxCell>
        <mxCell id="T8cn9ByeMSnCI6hdlmqj-37" value="" style="edgeStyle=orthogonalEdgeStyle;rounded=0;orthogonalLoop=1;jettySize=auto;html=1;labelBackgroundColor=none;strokeColor=#0B4D6A;fontColor=default;" edge="1" parent="1" source="T8cn9ByeMSnCI6hdlmqj-35" target="T8cn9ByeMSnCI6hdlmqj-36">
          <mxGeometry relative="1" as="geometry" />
        </mxCell>
        <mxCell id="T8cn9ByeMSnCI6hdlmqj-48" value="Text" style="edgeLabel;html=1;align=center;verticalAlign=middle;resizable=0;points=[];strokeColor=#BAC8D3;fontColor=#EEEEEE;fillColor=#09555B;" vertex="1" connectable="0" parent="T8cn9ByeMSnCI6hdlmqj-37">
          <mxGeometry x="-0.5636" y="2" relative="1" as="geometry">
            <mxPoint x="-2" y="13" as="offset" />
          </mxGeometry>
        </mxCell>
        <mxCell id="T8cn9ByeMSnCI6hdlmqj-49" value="&lt;font color=&quot;#000000&quot;&gt;Analysis&lt;/font&gt;" style="edgeLabel;html=1;align=center;verticalAlign=middle;resizable=0;points=[];strokeColor=#BAC8D3;fontColor=#EEEEEE;fillColor=#09555B;" vertex="1" connectable="0" parent="T8cn9ByeMSnCI6hdlmqj-37">
          <mxGeometry x="-0.0909" y="-1" relative="1" as="geometry">
            <mxPoint as="offset" />
          </mxGeometry>
        </mxCell>
        <mxCell id="T8cn9ByeMSnCI6hdlmqj-41" style="edgeStyle=orthogonalEdgeStyle;rounded=0;orthogonalLoop=1;jettySize=auto;html=1;labelBackgroundColor=none;strokeColor=#0B4D6A;fontColor=default;" edge="1" parent="1" source="T8cn9ByeMSnCI6hdlmqj-38" target="T8cn9ByeMSnCI6hdlmqj-40">
          <mxGeometry relative="1" as="geometry" />
        </mxCell>
        <mxCell id="T8cn9ByeMSnCI6hdlmqj-47" style="edgeStyle=orthogonalEdgeStyle;rounded=0;orthogonalLoop=1;jettySize=auto;html=1;labelBackgroundColor=none;strokeColor=#0B4D6A;fontColor=default;" edge="1" parent="1" source="T8cn9ByeMSnCI6hdlmqj-38" target="T8cn9ByeMSnCI6hdlmqj-45">
          <mxGeometry relative="1" as="geometry" />
        </mxCell>
        <mxCell id="T8cn9ByeMSnCI6hdlmqj-38" value="Visualize" style="rounded=1;whiteSpace=wrap;html=1;labelBackgroundColor=none;fillColor=#09555B;strokeColor=#BAC8D3;fontColor=#EEEEEE;" vertex="1" parent="1">
          <mxGeometry x="246.5" y="700" width="120" height="60" as="geometry" />
        </mxCell>
        <mxCell id="T8cn9ByeMSnCI6hdlmqj-40" value="Word Cloud Tags" style="ellipse;shape=cloud;whiteSpace=wrap;html=1;labelBackgroundColor=none;fillColor=#09555B;strokeColor=#BAC8D3;fontColor=#EEEEEE;" vertex="1" parent="1">
          <mxGeometry x="151" y="810" width="127" height="90" as="geometry" />
        </mxCell>
        <mxCell id="T8cn9ByeMSnCI6hdlmqj-45" value="" style="shape=image;verticalLabelPosition=bottom;labelBackgroundColor=none;verticalAlign=top;aspect=fixed;imageAspect=0;image=data:image/png,iVBORw0KGgoAAAANSUhEUgAAAQYAAACSCAYAAACntWTdAAAAAXNSR0IArs4c6QAAAARnQU1BAACxjwv8YQUAAAAJcEhZcwAADsMAAA7DAcdvqGQAACTrSURBVHhe7Z1rrCTHdd//p7pn7tyZ+1iS5lOJE0UEQ1OQqCSyAhmWIsRg4oSkGCmA/cFCLCR2gCQyEFkS8iFA/MVBIESyEgRWvuThyEhkRDElk6IoCVJEUhSzXCqkyVDcJaXdFXdpPna5u9zdu3fn0V0nH6qqu7qmu6d77tyZnrn1W9TOo6v7Tp8+/a/X6SpiZobH4/FYCPcLj8fjIbvG4CsPHo8HAEhKyXEcI45jLwwejwcAQHEc88WLF3Hp0iUvDB6PBzBNCWaGlNLd5vF4DiiZPgaPx+OBH5XweDx5eGHweDxjNE4YZtau8S0kj2dqGicMqgtUd4RyrG5w1orBsN7o5HwcAogBgCQkeHZC4/EcIBonDAAAlvqGlqkwJNvIEQrzvXoZAVB7R14WPJ4padSohLnXSb8mqmV+IaV5xzA7AgAiAAwGARCghuqfx9NUGiUMAEPqu5tePwraOQPEutZgZIOceAsmrQhqPw4Io+2b0br+7SAK9fdigqp4PB6bhgmD6h8ImHHloX+D4bMPgIa7uuSv8jMJVxFCvOse3HTvJ4C1awEEbiaPxzOBxtWxA0QAEYjawFDoGoFuWLAAONSpDXAL4MCqDTDWpQBGOl/zTs/jWQoae+ek9QPdTEiaDEXo7QSAWNcUyvJ7PJ4iGikMrLsOmOCIQsGNbjIntYsqzQ6Px1NEY4XBfs0XBPvmt7c7w5sej6c2jROGZPzBVAIKawomZ3YbM6v4BTf+wePxVKZxwjCO3YwoEglY2/IFw+PxVKf5wsCoIQpGGKTvZ/B49kAjhYGg7mti6P+klSbc8CR1ENSEfB6Pp5DGCYPbaCDoG50qCoPJQ7K4guHxeEppnDDkw04cQ5Vp6CYJiMfjKWIJhKFCHEMGnY+F1waPZ0oaKQzmfk7va1cQ3M8OKjLK4/FMSeOEwQw2FscxuJ9dzPbGnZrHszQswd1jNyMmiQIq5vF4PGU0XxgqxTFYJO2PCnk9Hk8ujRMGMvMtMSBAIGI9S4NJ5T2KIiAEAVnzRro5PB7PJJKVqOy1K4kWWNpSBOYA/W9+AfHTDwDRDlhFOlm1B/vVQUQYvfNe3HD3J8Gda8d0oWHz0ng8jYSYmS9fvoyLFy+CmRcrCtDCgBCbP/xD8J9+HRRfUcLAduWGCys7YZtx7s9/CJsf/A0M164Zm/2Jmb04eDwTICklSykRRVH65SLFgSIwAgy/9e8x+uHXIORVPduzEQIzbpEvDCRijN55L67/W7+FYecaLQlZYTjIMAGCGRKBiirdM1nh9awGJKVkIwSNqDEggkSI3Yc/h8GT90PIq/p7+3fppkUOQkj077gHN37400DnkLv5wCMBCI4RUaDmuKp5TzMBBBWJGhEQFl8KzxLTuMlg2RaGI/cjiPtullJiOYK88yO44Z5PAZ1t77S5MGImDI4fRnD2p5kt5QWD2ibQRxzchODOX0LY9pPtriLNF4ZokHNzF//kWI4g3/1R3HDvp4DOVs6+BxkGeISY2giGl/HWV/4F4hcfz+QoEwaGQERttPkiBu134Kbf/iNgfdPN5lkB8hvqS02xY3ssTY0jsJRgUCYp++UnJkIsCMMgRIsvASIdyfKsFo0UhsQVGdbj1jUeu0728WQhgEK90gahL3rZbSAwhE6BfqW0u5cZ66MYQdRDzOt+zY4VpnHCYIuCcVU1t4JxT5MKMKLg52PIh4Re2SuG4AgCUiVmCIZOpBO0TKg8xBICQDsmjESQHUH2rBTLc2kz8zGUCIOnIqrhANRYsyPJY2plnlVlCYSh3nwMKqA6eTTT48KpGQm24BbYl3UeWzz81HkrT+OEIWks6PtauZ/tsAUOnEBgX5gVQ/o/IhBINS1Ii2nGrubGd21doTnnWXoaJwxwxGHcYc13+RCRXhy7OI9Ha4P9T2mFxr7x8+zohWHVaaQwZBir6uY5agpB5NQyPAnWOjzKQlVs6+bRncFefFeW5guDZ+YkZX3lQj8VBVUZUzUGLgmG8iw3jRSGxA0Z08UxJMkzmTq2BZgIUqfJuQ8yZplEZVuGLPnHkPpRQTstksYJgy0KSRk1bRyDZwLGtkYUJouD1EFQEsLXGKpQbk6NiTuVOtlhZZUOMHMaJwyF+DiGfcTuP1icM64WBMkAkwCzAFiAcpJgAcGkyz1dw5AxwLEqFmW8kNrvEghDvTiGJJ/vGKtGJkZhss1MLU49eu1u9dgI3gVdfQN0+TXQpddAF8cTLr4GXLLT68Bl/X5wGUTpLTpPczfy6Urew3wMQIT+Hffg5g9/Bli/pjjbQYUBSYAYnMP5//m7oB8/oje4tbE8wxEYAQhD7HSvwy2fegAi7JY+kXmg2TmNV7/zJdBbryHQTWNYliWtrQTToav7bQhgMMLbP4Rr33s3EK7bcapzoZE1hqR1RSgoydzPNiZ/WR5Pimsr93MWYlZpruXXkjLsg1/5EcSJx0EnHgOd/H6SxInvQ5y00onHdfoB6MQPQCeeAL1xFBjuzLmuoGikMGSoGcdQPZ9HUce2Vk6rBPRMhohAAARIz36uLKlC+NW3JspMBZypoLNFGbn5wuDZZ6YTBmhx8EwmsZcKQk8TCSUQliAI6I86f5Vrsh80UhgSwzF8HEPTcB+o8tRCWS21n/JmWy50bWySm+8zjRMGWxTUex/H0Cz0FfLiUJuMb+tRs6wwZPO6382TxglDIZXjGBZnzIOAXWEouwqeKiRFX+Zz0uRg8938Lb0EwlBvnF3h4xj2i0y9zZt4j+T5tFLcVBTc7fMhVxjMak0LSZbTpY0G2zgTjFVbRDx1YOIk5ZVkY9fzAKVKaP9U/p1OwwvzPnOc1I9ZP0uBOdl4TBi46gnuI9kSKe8mdz/beGHYX9TVUeLgbjvYTL53XL9MPD1JqVC4qD6zyX9jNhAz85UrV7C7u+tuWwgsVORj+4n/DPnMgxBR3oIzxcaRHKF/+z3Y+MA/wnDtWkBMXiH7INFiwiBghP3zuPr130Pvlf/raGhZp616gIowxOXedeh8/A9AYt3NdGBxI0C3L53EGw/9Hlpnj+o5twVEUgMYh5AdjYjefR9av/AxjNY2EJFav3VeferEzNzv9zEYDNxti0HEYAqBR/4j+Jmvg0a7OUYc/yZFov9z92D7Q/8Yo861YPLCYCAAIQSGASMcXMDO1z6LtZePWDM3YYKtUmHY2fgZbPzmfwdRx810oLHFYeutE3j1wX+L9tmjaiJ+Nt2K+eQJQ+9v/EMM17qICPMXBvNBSjmmenOHYjBCXH348xg+9VVQtGu1rjCxiUAixvCdH9YrUfm1K/NgADS6gDf/x+9AHP++Y9Ey+xKgn5XY3bwBN//2n4ACX2Mo5MJxvPbl30HrzFEQx2q0oaT95QoD/tpHsf13PgGsbUKqeMnSqzNLMn0MRhRUOOaCkgkSJdLrH5g1IthpjxUhwbyYR1WXAvNQpJS6vWrPx1DBvnq8UlWK5+WmS4oxD5mQ6Hr2ItLXR0l52VWZOWPCQIuuMRiS36FffRzDPmJsSxNsm805IavHYnqvVKIwb8ZGJRpJ7SHIOnkPOvXiRExEqheFeTL/pyYaKAysKk+sXkGUPGyiajPlJmImsAmC8Ixj7JJUbV17up+zMCRYz2PojTwBq2U2oYGWId0t3aPO/rOgccJgDKDczlSjhOWw5Y6bWtWLQxEMTh/hG+sMcz87qEU71DHmNKa+vCg7MVTQUGWHZDdeoeJ+M6RxwjBORUFIqJPXU9++noPAEggD7GqAuyGHKnmWh/09G1cUJguDHao+VtnwrAyNEwbXTdUgjWnTVmnX6se0V2S4MjlbZvyfkzt46IWLeOiFi/jGj1R62Enme5PvwaOX8OALfTz8o0szsYiEXlPCryux0jROGGAEIXnCzIpjSL4scUl7PoYVKtGYJQ7/+Cy+9uTJ0vTVI2m6/8hJ3H/kOL765Mv41tOvuIesjaolKFEwAuFZTRopDOPo+gObn1siDLYalGVbKtRzeKNYoi8DlVgn81mngfM+jiXiiCHNKM8s0HbNROl5VoolEAZ9o2cCnCaxOvMxqLNQwiAZGIk2RqKNiPJTTC2V0IJECGKh7+C928Nt5nlWl+YKgwCgl7Rn1k+ss1lhueRn65DdVXHd7FkQhJQQUgKSVVIGSpL5CmD9VajtFjjPnEyJnjq++PFgzypQcoctCuNuajILVforh6zWNli1Mi09ZyaC4FgnCcESVJhiEEtAtgAGmMVMhMGeVMSzujRQGFxMDcGkSTf8CgoDqyXn1WpEVc4tkdY0L1NFYS2H4PQDe1aSJRAGU1OoWmOokmeJsGpKDN1MKu0/cYd07bvY7X4031W3b/KsRAV58iwvjRSGrOMZ5z2YcQzZ87VvReu9PXvHWIXC3PAFNhlbt2MS+g+UipNn2WmsMJgqayaOoUrJlsQxxCtepDknR0VradjCkGe3mvMxJKIwpkCeFWKmwrCXiSpVx1ieU9olVJ04hlV9iKruDTkprzme6b8pNxojbc2U5/QsMzMTBjPttJRyusTSEgf34Kjg4DarXNWtKwyw9snbz7ZV3vYstiCsrIk92Tkfp0Pt/uhL5/HMyfP6O/VIb8ZvxpxPOaqQI7Qgcd8H3oGbNwQAqeZ8/NYX0H/yf0FEV/OkooQIgzvuxU33fUbN+bjszssRACBCiM9+8xSOvmLP5q2bDlYTQlrnSwwEsgVQhO1WiM9//O1oyzZiwQhGb1lzPlY1EoE5ANEA/a0bceMn/wTCz/lYTDLn4wtqCLninI/G38XPfwRbv/zPgPYhSF2Gz6wkn8DM/s6pixJPvdLHkdN9HNGvT46lgU5DlU4N8cPTfTxz+iqujNKhyKREAiqVYllMyVh3vxWmrE+gxFFz0cMSySE9xUxpn4xppzzGXpmZMBShRsrUbEHq1dluJoEVyG9GgA54HENV9DknHQDGBsZmRTax7Zu33TM1zGC5l7CyrAJfvryDM2fO4OzZs7XSG2+8gddffx2j0cj9A4XsuzDACIKZUz8podSwIukZdNXX05swJVvfWD0KhhUzYmAl3T9j/o1j+nVW1V51sG1R3yZ5e7if62Guozry6dOn8Nhjj+GRRx7Bo48+Wjk9/vjjeOKJJ2qtHSNkMo34tOTfiGlNwcCAelg3SYDU/ixU6L82gNknz40no+MYWALJIwTpmnxA9nPTk3kGggggYVvEEoey5oAe5hWBXgWJrWnZGLXjGIhFKvRMY793OZMEI1bzWUICiAGOlY20WcylMI+oxCoXzEIFUpuT9VGYGdjjOi2CBCDToeQojjAajRBF6rVqGg6HGAwGkHLy9TUIIQRYjyaY13rJ7KMe7U3RHS05TqviE5RQqH9KFNS4hJ5slHm6kNvE0WM10sHqvEyqY5wmEcWMOIoL4hXGbZyinSoaIeKREgbttNJM6lorjkEJkbq2+SK7XOjfy9b8jMYGLLVASJBUyTyjElhJdSxKEKtFadXCtKmgTwszAbGElBFijABIBEEwvhbLhORenyqJpJR84cIFXL58GUKolkWti6u7UR86LvH4iR1I1v0GSfMBGcc1LS4mVVsIZIyuCPGxD16Hn+0NELAalege+RLEc98ARQNHW8odV/IA/dvvRvi+X8Ogfc1MHhxaJIEelYjDLv7TU5dx8k3TTsz3OHvyFAIQSAEgxkZA+Mwvd7A2CjAIgVb/PPg7v4+NV4+oiWFZWLalguMTSIYQpFaiin/1i4ip5WZaLghJHVUygwIBIQQ4ZghmBKaA0q0yrYcZGOkQnKpZxGCWuHbnFN76zhexdu5FhKQbdDkFpYGSQlOxe/vfRev9H0O/1UYcAH926nWc+ukpdePWUBxTGL73ve9Ft9t1NwP6nrfve5JSchRFiOM4oy6V0Vb78jMX8L1jFxDHUk1NbvUr2MZg0g0GLQwijtETIT7x4Vvxju0YAjGYQ/S/9e/AzzwIEQ9rCQMowuCOe3D9XZ/AcO0avVz78mILw+e+cxovvXrVzZJBql5cIBEGAhBjMyB87uN/EWEfGITAenwJF77yrxEcf8wRAlkqDEKGIBpip/szuO63vgIOl3vtSuVN6gE1CcYolhhKbQMOQRwAyTOlWYFwWRcSnUDVwIgk1i+cwOv3fxatMy8Asv4SdfGdH8XWL/0m4vUe4oDx/HNHcfInJyFrNlGMMNx1113Y3Nx0N2cwx51ZHMOXjpzFt58/A5aA0sbUevYpMJmqmtocxBJdhPj0r9yBWw8BhAgSIa5+8/O4eviPEcRDx0fLhYF5hNG77sON9356teIYSMcxnN7RGyi1A8lkdqsiYegJ4D/8xl9GKAMVx8CXcfa//UuEJ36Q5J8MQcgAREP0t27EDZ/8GhAufxyD7VFPnjiPh595FSTVutSxEUntR8WeB7z/L23grjvfBhEwAInw/E/w2pd/F+HZF9Qj8hWFgQGAGeLnfxVbf/ufAp0uJBjP/On/w/GXfoI4jt1dK3H33Xdja2vL/TqXmY1KpAo23rdgDK8Spx3oRkL0RuPqDICEmT+g7FKMIxmQkh05Wn6YkTT1FPXOT+W2bMnpt7Uwz6yQ/lErgL71IQC8dZXx43PA8fOEE+ckTlyIcfx8hOPnRjh+boQTJencTqQtrD3Z9FvUtZPpF87UCrLHcPsEytI0zFAY9Ku7wcGookkCppc79TfDdCdlD9utGua8ZnluJobhYMcxmDMncGb1M2jfdjv07GT2Vi6cndsq8XX9flmYmTDUIevetuXcnEjMnaZJmDxV8i4bVexgRmXMSMMkqhwzhZF2wNm14iiK8Nxzz+HZZ5+tnZ5//nmcO3fO/jMLhZAVgolDC8lmMWbNxNcrmDexbf5g3lyZmzAk9702kFFSBkOShCT1HmaeIjY/jms6u45jqDAmv9xY58eUM4xZxQaubSflV30YDKHWlrCUfDAY4MUXX8SxY8dw7NgxHD16tHI6duwYLly4MGUNcfYwYDWTdAd6Tk0hSca7M3ezem98uew+t0U2I7xuxjkyN2GALQ7WZyYJSVK9asdM8jBApG9009aYZLJkPobVWlciYUwA4FjVPn83Xw5Jvsn2NVuUiFPmgS1mRhzHU6e6Pe37zbgVjPeOp7Q1YY9lmqI/u3cuVg2MSV/B0h32n7kKQz7KApl2GSyVZf0Nk/Vz8x1XYay5QKvuJ0X1TNOvknHSnHxjmB1MH0Oxbd2juZ+B8rZ4WWoUOnCrTueq7XXJJZiGslb1HGmAMCD3Zk6NY1S3oqlsIal+XZeIIrdxhSAvTw6mqAIq7UNwRdvZPuVNPu1++0POiZWQFmjudL31jmNEwf68KOYmDGx6CPSZmypT1pSpSbO4w3RlP9tszzvOKmGdn91kMDUKU4MoJc9W7ucsZNaVYOmnkNcYa8k4Vq040w1JBAj1gKDk4hhce+TC/rxIyu6w/YfMf4lJstsLvyujZg1jaSk6P2NP266zxAzI7c/Rl5H0HnbuZu3fPL5lDNeWi7bv3IUhHedN3cvEMeQbgvTPNCk/V4rJPylfdaJIRR8unio3vJ2nLJ/Btu1kdyBM7mU/sJj+ATOiNkkNHDJXrua+s2ayJ8ycrDAoQ2RLIDY14vSTlSaRzcsMxHGM733ve/j2t79dO333u9/Fc88915CnMlmFlJd6TV1hqGdf+4ilP+OAYPzU7RNmVDS/QxOaEZivMLiOaj6znp9BCQR0NIMZslE3gT3OPslq2TgGZkYURTh//jzOnj2LN998s1Y6c+ZM7WfZ95PkFtYPoSnHnMIDAX0k27YVzpF1zaJSH8bqkhECIw5mlhGC8mhdgxBLWMOaozAgx5FIi4FySvV8W9pJqcbJ9xrHUJK3Ak0JujEoQTBT2qQOOTU14hiy7OFvrgiuxYzPJteErJGxqmZtCHMWhhz08+7J5BaWy6WuZ+TZ/NwyC5uSbDUdV8fhuV/vAWMr08dQZlun6uxuPMCM+6wypUDa5zDpqnFSS842SxbBwoXBvY0zr6zfmdcqJAq9op47a68xd3lFMiatvttKk/isNo7tz/b2qjTBbecoDOy0Yd3PKWSpbLamYLaW/Wyz3ZWa1UIwJWW8KLDjZFxbIedzFiaGJPV8S/HI/OqTWwuwnrdiqCnhJKtpBtQjmnbmlDFtTpoji6PsDlsYiY2m6rSpWcNYWhblPWm3eY2Kxmri2J5yvC6ZlsjdYONcyjGhWAALEAZTU7B7wbMlF8HuyTXbTJpkseyxVgtSNYWZeo1t2wW4w5JjhhfJimHIE4hlYwGeYFnO6sFVapk153TGNdo796J0DlSJY7BFtyyfwbZXlfyePAhOkW/e6i6hqlejKSxAGLIwEaRJM9HabBzDqpHcwm4cw9hj1lVswI6QTMoPva5EuraEx8a2R3XbEGdjHZoQ5LR4YYARBu3ge2XGcQxNY3Icg33+k2/0aeIYVHV5toOmq4fqbGQT21BzMGkWReRemLswkO4/MMluU5S7Y1UIbM3Dt2oUltSq69vyqKqeaHYwfQzlVyHTli7P6rGsWcVUiV316yKZuzDkUsmBq5Hac1UfCi4SPVcI8vLkwPXsXz2nZxoyosCoNVnMLJmbMCTurM9zv0ocFa8uADJPXszGlZs1kUhJHEPS8WBqAWWYPPa5uZ9dlFWLutPkntdCXWbs806vSW176FmpE/Q09Hn23i8meU5lqpy7W9aln4t2LnPQIsw+0+y7TBTFMRir7tP5k/6j+3T4ZrDYkzNXj2Gml5t/KBlJKfnSpUu4cuXKlKWi+skPvDTE94/vgGV+Gzg9WaWkpH2MGei1OvgHH7oef6E3QMAjAAHWn/wDxE8/AJL1lqgbyCH6P3cv1t//6xisXYNOO8CgfxWHDx/GcDisfY5RFOGWW27BbbfdliwoWkbZIh/TzG9olqiLgnV88YnzePmcKYkoLZXIXokqPT5Za1dut0P8q49cA7oSYxAw1qJLGH7jC+icesr5TWUdlgTBAoQhdjeuR/jr/wWDOACgHm1/4oknpnoKNQgC3Hrrrbj55pvdTXMlCAQePbGLP352By1qI0CMOLPCeAEExFGMX3ybwH1/9SaIYATGEFsXTuL8N38f62/9GIGeZCDv3jCYe8IwevffQ/jXfw27YYhYME6//CpeefkVxHFc6GN5EBGEEHjf+95Xunal/SoAYG1tDVtbW9jc3KyftjaxubWFIAj1qU2GTWFHAHQUQ6+7js3NDWxubWBjaxMUCEAoKRlPxXQ6a1hba2N7ewvb21vodrtYX1+f6qYEgDAM0W63cejQIWxvb4+fv5O2t7dx6NCh3FRl/6K0vb2NtbV2BRuQkxQyjtHpdJLj9Xo9EJnOxmq2hclFAITAWmctObeNjY2p7AvtuOa3bW9vLyxtbGxgba0Dyqz4VY7ty612C93uOnq9HjY2NrC5vY2w1QLLyXbNQ5BAr9dLfl8Yhm6WWvR6PWxtbRUm298EALTbbfR6velTtzvxR7NplWrfYfNYNTHiaID1Thsb3XV0uz2sd3ugQOiOdnuMfXJpNBoMABmh01vH5sY6uuvr2NQLedZRWZsgCNDtdtHTF7wsjdnGSW7+SamrU6fTdgYInX6FCTCAzto61tbXsa7FMgiEmp6/hn0lCUgQIsnobiiB6fV66HQ6U9sXAFqtFnq9Hrrd7sJSr9fD2toaAqFXoSoRuqQbBwCDQYIQttrodrvY2NjE1sYhYG0NAEME1YXGJggCtDprym/WN3ThOx1SSnQ6HayvrxcmY4Ner6eEwSi9KVVrJb0YR1Xc8sk4pgpvipPv09gGHbBk2rYTSzbt4KTDpdyOnCkZO+85JX0CaeGfG58w+fzI5CItL8YmNeIY1JXSV4sA2AvoEk3VjDC4572IpH4HKtkTBRZLL1di8b1FfJA6jrrP3I2zw7WFcA0zD4zaMqkP6SK4aoXhLNrAersi33FhTKiPN36sFcAuqmaCcWAzxlFmWyutcv+jLkzGk5sxxdgFUP1maXdhyU6VMYvjut/vH9PVcWaIMuiEm5hR3cDGeKwbfyuH7YIzgLWtKjLjv95oyPw34aTzNhmXJbu2tyfm68wLFwbAqj5w3hg6OT/T/exitpvjuMdbFazzGmtalEBahpNaomtz93MWAUAQJ8lQNhqzTJjzSJK0knV6lDcfg7l5CZX6a4pg/TtA6nq5f2UelN1hc2LWJ77qgmCYxflNcQwtBlPsuXRMlLm9Z8hnZo8HTE8jhcF8o3yQrPbvuEaPU1TzWBXG7bU3bNtOdgfzjEvSF3zAMRG8+xHFu0gme8I+w1BThbHj71lDGy+s4o2r7rWTzq3e8G4923qKmLVcL5rFCwMxmKSei18Nm5nyXr3WdfQ6eZcZ6/y4aD6GSTc61xcSNmtKrHKtbFq0Pdi8X177NEAYJKROJlw63aj/qxPHYAJ2VnQ+hnEBgOOA1lwMY/lyqBHHkP4d99UzznLbZu7CQFY7NTMfA0jXFXS+ZJxcb68Yx5C2SZb7whRSFMdgzjvZVJBvDGMr08dQYlvrz5fn8iw7cxeGMRJxyJK5tQvylLKy3lskeq4Q5OXJgY2oVKOsPuFZHeYmDIk7a69Ke3LNFlNqOU6aqSnAyleEe5zqTr9cWOdlNxmSIn2SnZBjK+R8tmFISEjEOqV/d97Rs83EODeq9dc0mEmeM1PM7Z/97H67V1ZdEAxF52fsWbR9ryjnt//3FLG89pmrMBhM/4GqNahnG0wk2ThktX/LSjPDQY9jsIWhLJ/Btm3+FfAcPBbiCab5r5q2aj4G14XTwTN3yyQOehxDXWEwx5t0XE8expfNKterwtyEgc3IuvZVtpa5T1eUUMNmRjSm6z+sMSa/1Dj9ClNhrkp1m6VrSgioWScPJkk3Dmz9Nc5t3k97XRbP3K/sWPlEqVMS1HoJUiuweubfPcIEMnEMK1gK5sYn1DWSRa04BoN+GnZSthWHtUCYAi9rjj1ckwYwd2GApbZMaR+DWo9RzceQpKkdb+odlxhjtXo1AMAewRATbWeek0jjTA44dn+Zu22JWYgwuOTNxjC9KBxUpqleJdU299tS6uVefVbRHg0QBqv6oEcTzJiC8AJRA7eG4H7OR3X72q5trF+ECVE3zY+DCTnrTSq0PQiVbF+Emh5Ox4UkU7upeSjnFSvSDGEocsSD63d7ZMxji6nbcZlRan+BypnePnlXJe+7/aIxwuCe9Kq12eaH6XQ1r2UYUTb9C1XcQR9bdbm5Gw8cSX8Lw7JHtdpak6niCaUoU6hYhOmxu3SN443HNtRjb3s3Bn3vVrYuwXLQnL0odmxT107mmARg+unMmwnn26wCRmKz+093rBRze6oB/bqVu72wZ2EwJQ6DECAee2JyPOnn+XWKBGO3RYiFMSMBGAFiB1KXeMRsKbMeQ+cAxOFYiinEUHQAqr4ATpOxy6B+0MZIBCoFhFEgMQojjMIRoiBCFER6mJfACCARgCnC1RZjINYQQgCI9YEJLewoG7FIU6b2kE0MwkgISAQQMgSzWoVqZWBAogVJDBK7iEWEWEjEIlbvg9F4EhGkkIiFmnAoQ0CQgtGSEVhEYL0ymJuEjvwFlJMzSUgRW/0/AsB8bb1nYSAwYl2+RxRCEkCIS5OwEsAQGCoTMGtDSIwCYCSkvjCMWMBJSkzcxABCHgIcJb9rmSFIxPoyrcc7COMwTTJAGAcIY4FWHDgpRCsOEKCPkCMIGmAEtdivskgLV0UPkhw7UnFiYoTYBSjGIGjpgLTVQZIAEyHkEQSPEEhGGLdUkvrVtr/+PtCfhbRvXgJ4hIBHiClATAKxAKKCZOwfCbaSWY1NF3FzrDIQM/NoNMJwOHS3VUQiohb+9/Ov40d/tgNIhuBih2Fyq2sCbY7xK794O25ejxBRiFhcxYXnH0L/6GGE0QgA0oetEscWuTUCliMEf+7deNsv/H3srF0Pioe4euUynn76acSxLi1RfVXmMAxxww034Pbbb096hKvsNysErqIfdNEmwoNPvYyXz7bSjRQl7VnSa1carRcsADA4uALJLQRhjH/yN9+FUAxALDCKRnjjkf+K1pkX1aGI9HmVXDswQCO05Aj9zbfjpnv+OZjaAIB+v4/Dhw9PZZsgCHDbbbfhlltu2dOiNXtFQuDpn57HD469pupHsg3JHd2BYCdDWqLHscRf+dkuPnjnzRAiAijC2uVTOP3dPwJdPA8OJQQIAVpjIwtM9mrWrGc1Y4Rv/wCuee/dALYQyAg/+elLOP3KaURRVMtOnU4HRIT3vOc96HQ67mZAX//MZ2bmnZ0d7OzsZDZUITkVEpBxDCkZ4ADEwZgJk33SnhoAQEgCgiWECEBCoBUzhsEAu9RHa7iLthwhMNOc692UEdPPKQIiaGMkAW51EVMbYQDEw35m4RDom7uKEwshIKVEq5XekHUuyl5p4Qp2wk2EwyEGQQ+IUnEDoiRyVAkBEmEgKQDdrCDZxiDYxQ2jAXbDdbQQIW6tobf7KgZQTS4zSznB9PqOi25EAXbCLq4dvYkRrWG3fQjtSNmQmSGlhKix7qOB9CpW8xyOc1HTBElETNjlNkACAavFglVBnS8MqpgSiGNGQBKtQEIINZwbg9EZRQikQEwjEI8ADsYWjuEkklXNOsaQKvhPAnLzOlDUw9pohAH3MWJ1/av4rkHoJffKFmV2j/f/Ad36JYSf8jxjAAAAAElFTkSuQmCC;fillOpacity=50;fillColor=#09555B;strokeColor=#BAC8D3;fontColor=#EEEEEE;opacity=90;shadow=1;" vertex="1" parent="1">
          <mxGeometry x="330" y="810" width="161.51" height="90" as="geometry" />
        </mxCell>
      </root>
    </mxGraphModel>
  </diagram>
</mxfile>
